Coordinates
version=1
nRows=54
nColumns=13
inDegrees=yes

Units are S.I. units (second, meters, Newtons, ...)
Angles are in degrees.

endheader
time	pelvis_tilt	pelvis_list	pelvis_rotation	pelvis_tx	pelvis_ty	pelvis_tz	hip_flexion_r	hip_adduction_r	hip_rotation_r	knee_angle_r	ankle_angle_r	subtalar_angle_r
      0.00000000	    -11.02966133	     -3.29844577	      7.73173755	     -0.68088555	      0.84632798	     -0.09686441	     38.47730636	      1.75472618	    -10.64701493	    -11.20935557	      1.21869202	     -1.35585290
      0.01000000	    -10.85142461	     -3.42921258	      7.22630211	     -0.66340776	      0.84653458	     -0.09474242	     38.06377354	      2.36930227	    -10.03305081	    -12.35791022	     -1.43474962	     -2.01244734
      0.02000000	    -10.80995508	     -3.67154017	      6.59105351	     -0.64638704	      0.84690709	     -0.09221366	     37.81164422	      3.14075644	     -9.35269653	    -13.57650496	     -2.98801894	     -1.84132794
      0.03000000	    -10.81539729	     -3.93344027	      5.86426263	     -0.62950644	      0.84748402	     -0.08931983	     37.71010871	      3.97049328	     -8.67171210	    -15.29072757	     -3.23968473	     -0.62111772
      0.04000000	    -10.73080227	     -4.21652628	      5.13426002	     -0.61273283	      0.84822666	     -0.08638172	     37.66720247	      4.79507683	     -8.07917931	    -17.36959113	     -3.49338783	     -0.66161481
      0.05000000	    -10.59493863	     -4.64658813	      4.56319164	     -0.59657208	      0.84883241	     -0.08385908	     37.67606731	      5.62782000	     -7.79625457	    -19.59911698	     -3.11714756	     -1.20243333
      0.06000000	    -10.32126395	     -5.08011638	      3.96994343	     -0.58067195	      0.84954848	     -0.08155746	     37.48621989	      6.50632125	     -7.54562812	    -21.85868961	     -1.74436032	     -1.15040895
      0.07000000	    -10.02949427	     -5.49466259	      3.29333687	     -0.56520728	      0.85018751	     -0.07937686	     37.14116833	      7.44815150	     -7.17695700	    -23.92584302	      0.14605732	     -0.69757874
      0.08000000	     -9.79648720	     -5.92313747	      2.58900749	     -0.55025331	      0.85062789	     -0.07729253	     36.65755727	      8.41807295	     -6.82790613	    -25.53081965	      1.68727336	     -0.65659529
      0.09000000	     -9.64794783	     -6.43152361	      1.90520822	     -0.53579908	      0.85095864	     -0.07523310	     35.98023549	      9.46363652	     -6.56179043	    -26.53945287	      3.00975705	     -0.84167391
      0.10000000	     -9.58525373	     -7.00165281	      1.28509619	     -0.52179688	      0.85139517	     -0.07308304	     35.09420711	     10.55636220	     -6.38659689	    -26.94054479	      4.30373739	     -0.93049805
      0.11000000	     -9.62726068	     -7.53555869	      0.75544621	     -0.50816190	      0.85201457	     -0.07081774	     34.11027455	     11.55982304	     -6.31010473	    -26.91007014	      5.41326700	     -1.05379825
      0.12000000	     -9.71927512	     -7.92900663	      0.36387749	     -0.49457631	      0.85308987	     -0.06851211	     33.01821490	     12.34971514	     -6.33254173	    -26.59860352	      6.51696011	     -0.98378216
      0.13000000	     -9.88980911	     -8.11306482	      0.10176296	     -0.48113398	      0.85462430	     -0.06630925	     31.90263909	     12.86745325	     -6.33601023	    -26.09357552	      7.48232822	     -0.89374367
      0.14000000	    -10.19908492	     -7.98860417	     -0.07274998	     -0.46797268	      0.85649717	     -0.06435650	     30.93089390	     13.00904025	     -6.26315953	    -25.58799135	      8.38446910	     -0.69140412
      0.15000000	    -10.51718044	     -7.70477519	     -0.13444848	     -0.45474329	      0.85875833	     -0.06266619	     29.92649490	     12.92470687	     -6.18510772	    -25.01509006	      9.20856433	     -0.42412626
      0.16000000	    -10.73003779	     -7.37849088	     -0.12219620	     -0.44139856	      0.86134083	     -0.06121910	     28.75646404	     12.76893541	     -6.08085843	    -24.33784975	      9.89308093	     -0.21762247
      0.17000000	    -10.84183692	     -7.02734136	     -0.06809550	     -0.42804038	      0.86412542	     -0.06006862	     27.40775186	     12.57982183	     -5.89797276	    -23.50879392	     10.39924345	     -0.16647440
      0.18000000	    -10.84792478	     -6.58546103	     -0.00687193	     -0.41465554	      0.86708358	     -0.05918358	     25.87507705	     12.27246523	     -5.70000763	    -22.56308804	     10.91459220	      0.01302538
      0.19000000	    -10.78956154	     -6.05055736	      0.04605380	     -0.40126092	      0.87010103	     -0.05850623	     24.24521128	     11.86559139	     -5.44180366	    -21.56565067	     11.35476691	      0.12600035
      0.20000000	    -10.69511293	     -5.52851562	      0.05959612	     -0.38786732	      0.87312961	     -0.05788916	     22.49484621	     11.52875079	     -4.99093794	    -20.34150157	     11.32053334	     -0.32168875
      0.21000000	    -10.56436509	     -5.03631405	      0.04402042	     -0.37439707	      0.87603890	     -0.05735556	     20.66171866	     11.20952527	     -4.47575304	    -19.05814552	     11.26839269	     -0.68713835
      0.22000000	    -10.47994540	     -4.59441315	      0.01152200	     -0.36097952	      0.87858045	     -0.05691217	     18.85815563	     10.94091261	     -3.91782600	    -17.70214250	     11.12773666	     -1.25069892
      0.23000000	    -10.45465657	     -4.29100187	     -0.05461645	     -0.34768442	      0.88075420	     -0.05653079	     17.12679922	     10.84969828	     -2.92538956	    -16.46286325	     10.63936111	     -2.09532216
      0.24000000	    -10.47147863	     -4.06681148	     -0.14575041	     -0.33446512	      0.88251066	     -0.05620736	     15.46051678	     10.84226647	     -1.76827254	    -15.27559855	      9.87603944	     -3.19102002
      0.25000000	    -10.51622253	     -3.68130561	     -0.26639614	     -0.32124626	      0.88358256	     -0.05605473	     13.88069145	     10.53577801	     -1.71892977	    -13.78708101	      9.93392309	     -3.87885163
      0.26000000	    -10.60823153	     -3.37880545	     -0.45475086	     -0.30806878	      0.88428472	     -0.05591027	     12.36638067	     10.36000431	     -1.10386581	    -12.47333472	      9.48459115	     -4.88244285
      0.27000000	    -10.70378536	     -3.10616658	     -0.66874049	     -0.29495834	      0.88461519	     -0.05587880	     10.96106193	     10.16246909	     -0.66054415	    -11.41891106	      9.35582038	     -5.30936337
      0.28000000	    -10.75097545	     -2.98084197	     -0.81299432	     -0.28161834	      0.88462300	     -0.05601611	      9.52711231	     10.05247384	     -0.65235568	    -10.44210082	      9.65784197	     -5.11722942
      0.29000000	    -10.80786601	     -2.87901513	     -0.95040550	     -0.26825462	      0.88413775	     -0.05621633	      8.10517126	      9.95772659	     -0.68344764	     -9.45034078	      9.95346094	     -4.99599733
      0.30000000	    -10.84397283	     -2.82542951	     -1.09014262	     -0.25477670	      0.88321353	     -0.05641816	      6.65692208	      9.92587176	     -0.69423893	     -8.44855268	     10.13752321	     -5.08612097
      0.31000000	    -10.79212297	     -2.84973793	     -1.17864177	     -0.24099506	      0.88196758	     -0.05675328	      5.07600903	      9.98444714	     -0.78294772	     -7.38634213	     10.15098855	     -5.42685662
      0.32000000	    -10.64915804	     -2.89227392	     -1.24983589	     -0.22708639	      0.88051623	     -0.05712355	      3.47038779	     10.05438057	     -1.01981145	     -6.52149388	     10.38835477	     -5.50868398
      0.33000000	    -10.56140858	     -2.89469124	     -1.51562998	     -0.21341003	      0.87867718	     -0.05717094	      2.08008461	     10.10790573	     -0.98759272	     -5.98874765	     10.66220828	     -5.74272031
      0.34000000	    -10.38600237	     -2.92482557	     -1.83604342	     -0.19911414	      0.87661859	     -0.05729728	      0.60805349	     10.15736741	     -0.97835338	     -5.58068821	     11.06913248	     -5.84589896
      0.35000000	    -10.21163232	     -2.94474576	     -2.23368182	     -0.18468757	      0.87433572	     -0.05737021	     -0.76693565	     10.16367044	     -0.85255115	     -5.40383079	     11.54604089	     -5.95761653
      0.36000000	    -10.11510602	     -2.99120388	     -2.70013213	     -0.17025788	      0.87178260	     -0.05743033	     -1.94195553	     10.17020896	     -0.48262092	     -5.49400517	     11.91810662	     -6.15270598
      0.37000000	    -10.14744768	     -3.03828744	     -3.23004411	     -0.15587419	      0.86897726	     -0.05751454	     -2.87287094	     10.13245529	      0.04980392	     -5.80746131	     12.32995267	     -6.24774648
      0.38000000	    -10.28004906	     -3.08301725	     -3.81658028	     -0.14144180	      0.86606739	     -0.05764684	     -3.59680324	     10.04565984	      0.65659152	     -6.33785561	     12.78401258	     -6.12826168
      0.39000000	    -10.48704009	     -3.11777564	     -4.43045095	     -0.12695815	      0.86316080	     -0.05783332	     -4.16837012	      9.90359599	      1.21478299	     -7.00426823	     13.32425152	     -5.66713390
      0.40000000	    -10.78354890	     -3.15389272	     -5.06480305	     -0.11231392	      0.86023647	     -0.05813592	     -4.59434457	      9.72195965	      1.72533503	     -7.76853170	     13.88772636	     -4.92849968
      0.41000000	    -11.06789770	     -3.24487096	     -5.64178469	     -0.09726545	      0.85735676	     -0.05861802	     -5.03052349	      9.55718830	      2.06543367	     -8.56698914	     14.38722598	     -3.82607332
      0.42000000	    -11.34597561	     -3.33127835	     -6.22393099	     -0.08226252	      0.85458706	     -0.05913451	     -5.37262839	      9.36098509	      2.32791295	     -9.52961741	     14.78734987	     -2.38854352
      0.43000000	    -11.62464841	     -3.36020480	     -6.84180155	     -0.06719261	      0.85181369	     -0.05958325	     -5.59246287	      9.09238610	      2.72310197	    -10.71827321	     15.16109841	     -0.96243607
      0.44000000	    -11.73165514	     -3.46003167	     -7.32821740	     -0.05170269	      0.84931455	     -0.06027290	     -5.90492960	      8.85610560	      2.86978664	    -12.09175397	     15.62894314	      0.84461200
      0.45000000	    -11.72826608	     -3.50043703	     -7.68746715	     -0.03592246	      0.84709788	     -0.06105981	     -6.19634553	      8.52783027	      2.75502601	    -13.69318621	     16.04714077	      2.96726435
      0.46000000	    -11.60396191	     -3.35418044	     -7.94351636	     -0.01983264	      0.84521292	     -0.06194077	     -6.47377550	      8.01957583	      2.81243219	    -15.47533465	     15.81250070	      4.33220494
      0.47000000	    -11.38722734	     -3.08273773	     -8.06132726	     -0.00342720	      0.84362419	     -0.06295219	     -6.69516853	      7.39130868	      2.77443297	    -17.47577079	     15.31234365	      5.48722395
      0.48000000	    -11.15943932	     -2.74072039	     -7.96970643	      0.01301830	      0.84226188	     -0.06420473	     -6.74916240	      6.71884226	      2.57884562	    -19.69108719	     14.47593641	      6.49875333
      0.49000000	    -10.95943045	     -2.31626680	     -7.64471984	      0.02914455	      0.84134921	     -0.06575706	     -6.53053505	      6.00393902	      2.33878335	    -22.16922857	     13.23519576	      7.37033654
      0.50000000	    -10.75977046	     -1.80201303	     -7.09498225	      0.04498221	      0.84106935	     -0.06758542	     -6.03759234	      5.22578298	      1.92519768	    -24.91637695	     11.50534816	      8.19081814
      0.51000000	    -10.45194091	     -1.18922579	     -6.29632716	      0.06114527	      0.84141009	     -0.06978405	     -5.47169123	      4.28573908	      1.08086811	    -27.78453556	      9.07420253	      9.36056509
      0.52000000	    -10.01959516	     -0.36554291	     -5.44492877	      0.07718765	      0.84218211	     -0.07203584	     -4.77824109	      3.04779912	      0.08160220	    -30.90606313	      5.96685363	     10.49444094
      0.53000000	     -9.53861315	      0.54388132	     -4.57300243	      0.09300478	      0.84314482	     -0.07430441	     -3.88436327	      1.58007159	     -1.06629981	    -34.40023131	      2.39232373	     11.88307839
